<?xml version="1.0" encoding="UTF-8" standalone="no"?>
<svg
   version="1.1"
   width="274.66214"
   height="496.52142"
   style="clip-rule:evenodd;fill-rule:evenodd;image-rendering:optimizeQuality;shape-rendering:geometricPrecision;text-rendering:geometricPrecision"
   id="svg127"
   xmlns="http://www.w3.org/2000/svg"
   xmlns:svg="http://www.w3.org/2000/svg">
  <defs
     id="defs127" />
  <path
     style="fill:#ffffff"
     d="M 81.045711,23.288997 108.52673,15.836518 29.809917,242.20557 128.55527,228.69795 19.562758,474.16399 92.690209,252.45273 l -83.84039,9.3156 -4.1920195,-9.78138 z"
     id="path1" />
  <path
     style="fill:#f2c004"
     d="M 95.428552,21.892417 253.02704,4.0687675 160.62554,168.70292 l 95.6848,-6.5666 -242.026255,320.35647 99.437135,-242.96435 -87.242015,12.19511 -6.56661,-8.44277 z"
     id="path128" />
  <g
     id="g39"
     transform="translate(-430.83787,-184.48657)">
    <path
       id="path39"
       style="opacity:1"
       d="m 670.5,363.5 c 2.386,0.873 4.386,2.373 6,4.5 8.327,0.5 16.66,0.666 25,0.5 2.318,0.318 3.652,1.652 4,4 -0.637,2.607 -1.804,4.94 -3.5,7 -73.15,93.48 -145.15,187.813 -216,283 -4.38,4.711 -8.38,9.711 -12,15 -2.389,2.45 -5.222,3.617 -8.5,3.5 -1.48,-1.299 -2.146,-2.966 -2,-5 2.917,-12.09 6.251,-24.09 10,-36 -0.333,-0.5 -0.667,-1 -1,-1.5 -8.45,10.289 -17.117,20.455 -26,30.5 -4.475,2.722 -7.475,1.722 -9,-3 23.517,-68.055 47.517,-135.889 72,-203.5 -14.372,1.422 -28.706,3.255 -43,5.5 -3.667,0.667 -7.333,0.667 -11,0 -1.48,-1.299 -2.146,-2.966 -2,-5 1.195,-4.22 2.528,-8.387 4,-12.5 -4.693,-0.064 -9.359,0.269 -14,1 -2.341,0.137 -4.341,-0.53 -6,-2 0.588,-1.705 0.921,-3.372 1,-5 -1.69,-2.431 -1.857,-4.765 -0.5,-7 0.342,2.119 1.175,2.453 2.5,1 0.111,0.617 0.444,1.117 1,1.5 7.558,0.769 14.891,0.269 22,-1.5 1,0 2,0 3,0 17.912,-1.05 35.579,-3.05 53,-6 3.662,-0.466 6.995,0.201 10,2 -3.714,11.762 -7.714,23.428 -12,35 -9.744,24.219 -18.744,48.885 -27,74 -4.701,11.762 -9.034,23.762 -13,36 0,0.333 0,0.667 0,1 -2.902,6.822 -5.569,13.822 -8,21 0,0.333 0,0.667 0,1 -4.896,12.687 -9.229,25.687 -13,39 0.333,0.667 0.667,1.333 1,2 5.393,-5.773 10.56,-11.773 15.5,-18 5.744,-7.564 11.244,-15.23 16.5,-23 7.636,-9.145 15.136,-18.479 22.5,-28 15.717,-20.878 31.217,-41.878 46.5,-63 9.475,-11.604 18.475,-23.604 27,-36 3.475,-3.604 6.475,-7.604 9,-12 6.353,-7.693 12.353,-15.693 18,-24 11.565,-14.782 22.898,-29.782 34,-45 8.242,-10.153 16.242,-20.486 24,-31 z m 11,-23 c 4.819,-0.347 7.819,1.82 9,6.5 -2.717,7.433 -6.717,14.1 -12,20 7.844,0.171 15.511,0.671 23,1.5 -8.34,0.166 -16.673,0 -25,-0.5 -1.614,-2.127 -3.614,-3.627 -6,-4.5 0,-0.667 0,-1.333 0,-2 2.333,-2.667 4.667,-5.333 7,-8 0.658,0.898 1.324,1.898 2,3 1.135,-0.603 2.135,-0.936 3,-1 -0.477,-0.978 -1.143,-1.811 -2,-2.5 1.205,-2.234 0.539,-3.901 -2,-5 0.739,-2.235 0.739,-4.235 0,-6 0.949,-0.617 1.782,-0.451 2.5,0.5 0.464,-0.594 0.631,-1.261 0.5,-2 z m -168,-115 c -0.863,1.921 -1.529,3.921 -2,6 -6.238,15.374 -11.905,31.041 -17,47 0,0.333 0,0.667 0,1 -3.775,8.321 -6.775,16.988 -9,26 -1.058,1.1 -1.892,2.434 -2.5,4 -9.179,27.405 -18.345,54.739 -27.5,82 -3.089,6.665 -5.423,13.665 -7,21 -1.905,3.716 -3.239,7.716 -4,12 -2.316,4.294 -3.65,8.96 -4,14 -1.325,1.453 -2.158,1.119 -2.5,-1 -1.357,2.235 -1.19,4.569 0.5,7 -0.079,1.628 -0.412,3.295 -1,5 -5.134,-3.269 -7.301,-7.935 -6.5,-14 20.794,-64.564 42.961,-128.564 66.5,-192 0.709,0.904 1.709,1.237 3,1 -0.285,1.788 0.048,3.455 1,5 0.333,-0.167 0.667,-0.333 1,-0.5 2.955,-6.428 5.288,-13.095 7,-20 -1.322,-2.69 -1.155,-5.19 0.5,-7.5 1.55,1.091 2.717,2.424 3.5,4 z m 161,-41 c 4.447,-0.104 8.78,0.396 13,1.5 1.687,1.913 2.187,4.08 1.5,6.5 -2.564,5.46 -5.397,10.794 -8.5,16 0.667,0.333 1.333,0.667 2,1 5.872,-1.9 11.872,-2.4 18,-1.5 2.587,1.525 3.42,3.692 2.5,6.5 -3.846,7.027 -7.679,14.027 -11.5,21 -21.735,35.442 -42.735,71.442 -63,108 1.833,0.333 3.667,0.667 5.5,1 15.76,-2.266 31.593,-3.599 47.5,-4 0.131,0.739 -0.036,1.406 -0.5,2 -0.718,-0.951 -1.551,-1.117 -2.5,-0.5 0.739,1.765 0.739,3.765 0,6 2.539,1.099 3.205,2.766 2,5 0.857,0.689 1.523,1.522 2,2.5 -0.865,0.064 -1.865,0.397 -3,1 -0.676,-1.102 -1.342,-2.102 -2,-3 v -4 c -7.547,-0.094 -14.88,0.572 -22,2 -10.159,0.857 -20.159,1.857 -30,3 -12.658,1.269 -25.324,2.102 -38,2.5 -1.076,-1.726 -1.243,-3.559 -0.5,-5.5 1.322,-3.465 2.822,-6.798 4.5,-10 9.421,-14.502 18.088,-29.502 26,-45 5.409,-7.809 10.076,-16.142 14,-25 7.122,-10.14 13.455,-20.806 19,-32 4.755,-6.504 8.755,-13.504 12,-21 3.416,-3.823 6.082,-8.157 8,-13 2.153,-2.294 3.82,-4.96 5,-8 0.891,-0.761 1.558,-1.761 2,-3 -10.90609,-2.46605 -104.36284,7.07645 -150,15 h -2 c -3.005,-0.247 -5.505,0.753 -7.5,3 -1.803,4.244 -3.303,8.578 -4.5,13 -0.783,-1.576 -1.95,-2.909 -3.5,-4 -1.655,2.31 -1.822,4.81 -0.5,7.5 -1.712,6.905 -4.045,13.572 -7,20 -0.333,0.167 -0.667,0.333 -1,0.5 -0.952,-1.545 -1.285,-3.212 -1,-5 -1.291,0.237 -2.291,-0.096 -3,-1 3.329,-11.153 7.163,-22.153 11.5,-33 2.222,-3.888 5.388,-6.721 9.5,-8.5 51.43734,-11.45931 104.13586,-12.07108 156,-17.5 z" />
  </g>
</svg>
